<svg xmlns="http://www.w3.org/2000/svg" viewBox="0 0 980 620" role="img" aria-labelledby="title desc">
  <title id="title">Real Work Systems transformation image</title>
  <desc id="desc">Bring in Missed customers, Too much admin, and Broken build. Through Real Work Systems. Get out Recover revenue leaks, Cut operating drag, and Free team capacity.</desc>
  <defs>
    <linearGradient id="panel" x1="0" x2="1" y1="0" y2="1">
      <stop offset="0" stop-color="#07111f" stop-opacity=".94"/>
      <stop offset=".52" stop-color="#0b1d31" stop-opacity=".96"/>
      <stop offset="1" stop-color="#14263a" stop-opacity=".95"/>
    </linearGradient>
    <radialGradient id="glow" cx=".5" cy=".48" r=".62">
      <stop offset="0" stop-color="#6fd0f4" stop-opacity=".34"/>
      <stop offset=".48" stop-color="#0b6f9f" stop-opacity=".12"/>
      <stop offset="1" stop-color="#0b6f9f" stop-opacity="0"/>
    </radialGradient>
    <linearGradient id="flow" x1="0" x2="1">
      <stop offset="0" stop-color="#6fd0f4" stop-opacity=".38"/>
      <stop offset=".56" stop-color="#8be7ff" stop-opacity=".95"/>
      <stop offset="1" stop-color="#9bd5c0" stop-opacity=".78"/>
    </linearGradient>
    <linearGradient id="core" x1="0" x2="1" y1="0" y2="1">
      <stop offset="0" stop-color="#0b6f9f"/>
      <stop offset=".58" stop-color="#0b2238"/>
      <stop offset="1" stop-color="#07111f"/>
    </linearGradient>
    <filter id="shadow" x="-25%" y="-25%" width="150%" height="150%">
      <feDropShadow dx="0" dy="18" stdDeviation="18" flood-color="#000814" flood-opacity=".42"/>
    </filter>
    <filter id="soft" x="-30%" y="-30%" width="160%" height="160%">
      <feGaussianBlur stdDeviation="18"/>
    </filter>
    <marker id="arrow" markerWidth="16" markerHeight="16" refX="12" refY="8" orient="auto" markerUnits="strokeWidth">
      <path d="M3 3 L12 8 L3 13" fill="none" stroke="#8be7ff" stroke-width="2" stroke-linecap="round" stroke-linejoin="round"/>
    </marker>
  </defs>

  <rect width="980" height="620" rx="34" fill="url(#panel)"/>
  <ellipse cx="500" cy="310" rx="320" ry="270" fill="url(#glow)" filter="url(#soft)"/>
  <path d="M80 88 H900 M80 532 H900 M326 80 V540 M654 80 V540" fill="none" stroke="#6fd0f4" stroke-opacity=".12" stroke-width="1"/>

  <g id="inputs" filter="url(#shadow)">
    <g transform="translate(92 116)">
      <circle cx="84" cy="74" r="58" fill="#102033" stroke="#6fd0f4" stroke-opacity=".22" stroke-width="2"/>
      <circle cx="54" cy="80" r="7" fill="#6fd0f4"/>
      <circle cx="88" cy="46" r="7" fill="#9bd5c0"/>
      <circle cx="122" cy="84" r="8" fill="#d9e7f4" opacity=".75"/>
      <path d="M54 80 L88 46 L122 84 M88 46 L98 112 M54 80 L98 112" stroke="#9fb1c4" stroke-opacity=".58" stroke-width="4" fill="none" stroke-linecap="round"/>
      <g transform="translate(88 92) rotate(-7)">
        <rect x="0" y="0" width="72" height="96" rx="6" fill="#dce8f4"/>
        <path d="M15 26 H56 M15 48 H52 M15 70 H45" stroke="#40566a" stroke-width="4" stroke-linecap="round"/>
      </g>
      <g transform="translate(42 106) rotate(6)">
        <rect x="0" y="0" width="72" height="96" rx="6" fill="#f3f7fb"/>
        <path d="M15 28 H54 M15 50 H50 M15 72 H44" stroke="#40566a" stroke-width="4" stroke-linecap="round"/>
      </g>
    </g>

    <g transform="translate(82 284)">
      <path d="M30 132 H198 L218 48 C174 14 84 14 34 48Z" fill="#9c795d"/>
      <path d="M52 62 H184 M48 96 H174" stroke="#5d4637" stroke-width="8" stroke-linecap="round"/>
      <g transform="translate(76 16) rotate(-10)">
        <rect width="76" height="106" rx="7" fill="#e7eef6"/>
        <path d="M16 30 H58 M16 54 H54 M16 78 H47" stroke="#40566a" stroke-width="4" stroke-linecap="round"/>
      </g>
      <g transform="translate(130 36) rotate(9)">
        <rect width="76" height="106" rx="7" fill="#f6f8fb"/>
        <path d="M16 30 H58 M16 54 H54 M16 78 H47" stroke="#40566a" stroke-width="4" stroke-linecap="round"/>
      </g>
    </g>

    <g transform="translate(116 474)">
      <path d="M28 18 H164 L140 112 H4 Z" fill="#17263a" stroke="#6fd0f4" stroke-opacity=".24" stroke-width="2"/>
      <path d="M64 48 L40 68 L64 88 M104 48 L128 68 L104 88" stroke="#d9e7f4" stroke-width="8" stroke-linecap="round" stroke-linejoin="round" fill="none"/>
      <path d="M92 40 L76 96" stroke="#c24136" stroke-width="8" stroke-linecap="round"/>
    </g>
  </g>

  <path d="M290 174 C352 184 382 238 420 274" fill="none" stroke="url(#flow)" stroke-width="8" stroke-linecap="round" stroke-linejoin="round" marker-end="url(#arrow)"/>
  <path d="M302 346 C352 346 382 326 420 310" fill="none" stroke="url(#flow)" stroke-width="8" stroke-linecap="round" stroke-linejoin="round" marker-end="url(#arrow)"/>
  <path d="M284 504 C350 474 382 386 420 342" fill="none" stroke="url(#flow)" stroke-width="8" stroke-linecap="round" stroke-linejoin="round" marker-end="url(#arrow)"/>

  <g id="core-system" transform="translate(358 144)" filter="url(#shadow)">
    <circle cx="154" cy="166" r="158" fill="url(#core)" stroke="#6fd0f4" stroke-opacity=".42" stroke-width="2"/>
    <circle cx="154" cy="166" r="114" fill="none" stroke="#6fd0f4" stroke-opacity=".25" stroke-width="2"/>
    <circle cx="154" cy="166" r="68" fill="none" stroke="#6fd0f4" stroke-opacity=".26" stroke-width="2"/>
    <path d="M72 166 H236" stroke="#8be7ff" stroke-width="9" stroke-linecap="round"/>
    <path d="M98 120 C124 98 184 98 212 120 M98 212 C126 234 184 234 212 212" stroke="#6fd0f4" stroke-opacity=".36" stroke-width="4" fill="none" stroke-linecap="round"/>
    <circle cx="82" cy="134" r="16" fill="#9bd5c0"/>
    <path d="M74 134 L81 142 L95 126" stroke="#0b2238" stroke-width="4" stroke-linecap="round" stroke-linejoin="round" fill="none"/>
    <circle cx="226" cy="196" r="16" fill="#9bd5c0"/>
    <path d="M218 196 L225 204 L239 188" stroke="#0b2238" stroke-width="4" stroke-linecap="round" stroke-linejoin="round" fill="none"/>
    <rect x="116" y="132" width="78" height="13" rx="7" fill="#d9e7f4" opacity=".54"/>
    <rect x="116" y="186" width="78" height="13" rx="7" fill="#d9e7f4" opacity=".54"/>
    <path d="M132 160 H176 M132 172 H208" stroke="#f8fafc" stroke-width="7" stroke-linecap="round"/>
  </g>

  <path d="M636 274 C674 234 706 184 766 174" fill="none" stroke="url(#flow)" stroke-width="8" stroke-linecap="round" stroke-linejoin="round" marker-end="url(#arrow)"/>
  <path d="M636 310 C684 310 718 326 766 346" fill="none" stroke="url(#flow)" stroke-width="8" stroke-linecap="round" stroke-linejoin="round" marker-end="url(#arrow)"/>
  <path d="M636 342 C674 388 706 474 766 504" fill="none" stroke="url(#flow)" stroke-width="8" stroke-linecap="round" stroke-linejoin="round" marker-end="url(#arrow)"/>

  <g id="outputs" filter="url(#shadow)">
    <g transform="translate(742 112)">
      <path d="M24 134 V90 H70 V134 Z M88 134 V58 H134 V134 Z M152 134 V20 H198 V134 Z" fill="#9bd5c0" opacity=".82"/>
      <path d="M20 146 C84 142 142 96 204 26" stroke="#6fd0f4" stroke-width="8" stroke-linecap="round" fill="none"/>
    </g>
    <g transform="translate(756 288)">
      <circle cx="86" cy="72" r="62" fill="#17263a" stroke="#6fd0f4" stroke-opacity=".25" stroke-width="2"/>
      <path d="M86 32 V72 L122 98" stroke="#d9e7f4" stroke-width="8" stroke-linecap="round" stroke-linejoin="round" fill="none"/>
      <path d="M38 150 H136" stroke="#8ea282" stroke-width="8" stroke-linecap="round"/>
    </g>
    <g transform="translate(750 478)">
      <circle cx="54" cy="42" r="24" fill="#d9e7f4" opacity=".84"/>
      <circle cx="112" cy="42" r="24" fill="#9bd5c0" opacity=".84"/>
      <path d="M16 104 C24 74 82 74 90 104 M74 104 C82 74 140 74 148 104" stroke="#d9e7f4" stroke-width="8" stroke-linecap="round" fill="none" opacity=".82"/>
      <path d="M176 28 H230 M176 58 H246 M176 88 H222" stroke="#6fd0f4" stroke-width="8" stroke-linecap="round"/>
    </g>
  </g>
</svg>
